<?xml version="1.0" encoding="UTF-8" standalone="no"?>
<!DOCTYPE svg PUBLIC "-//W3C//DTD SVG 1.1//EN" "http://www.w3.org/Graphics/SVG/1.1/DTD/svg11.dtd">
<svg width="100%" height="100%" viewBox="0 0 127 97" version="1.1" xmlns="http://www.w3.org/2000/svg" xmlns:xlink="http://www.w3.org/1999/xlink" xml:space="preserve" xmlns:serif="http://www.serif.com/" style="fill-rule:evenodd;clip-rule:evenodd;stroke-linejoin:round;stroke-miterlimit:2;">
    <g transform="matrix(1,0,0,1,-5.369,-36.714)">
        <g>
            <path d="M22.252,61.644C19.602,60.172 16.952,57.031 16.952,52.32C16.952,46.628 21.565,42.309 27.159,42.309C30.594,42.309 33.146,43.683 35.109,45.842C35.796,45.449 36.581,45.253 37.464,45.253C39.034,45.253 40.31,46.038 40.997,46.823C41.488,46.627 41.978,46.529 42.665,46.529C44.726,46.529 46.689,48.099 46.689,50.553C46.689,52.32 45.708,53.694 44.726,54.675C44.235,55.166 44.039,55.46 43.941,56.147C43.745,57.717 44.235,59.975 45.119,61.251C45.61,61.938 46.1,62.331 47.376,62.232C50.517,62.036 56.111,61.545 61.901,61.545C66.808,61.545 70.341,61.643 72.305,61.545C76.034,60.367 79.665,59.288 83.984,58.208C85.554,57.815 88.008,57.325 89.186,55.951C88.008,56.638 85.848,57.129 83.984,57.325C81.335,57.718 78.095,58.306 76.231,58.601C75.543,58.699 75.151,58.503 75.151,58.012L74.955,53.007C74.955,52.713 75.054,52.614 75.249,52.614C75.446,52.614 75.544,52.712 75.74,52.81C76.624,53.301 77.507,53.595 78.881,53.595C79.862,53.595 80.745,53.202 80.745,52.417C80.647,51.73 79.96,51.141 78.684,51.141C75.248,51.141 72.992,53.889 68.771,53.889C65.238,53.889 62.98,51.632 62.98,49.08C62.98,47.215 64.06,45.841 65.728,45.154C65.139,46.037 64.943,46.626 64.943,47.411C64.943,49.276 66.906,50.65 69.948,50.65C73.187,50.65 74.953,49.865 77.407,49.865C79.37,49.865 80.743,50.454 81.136,51.141C81.038,49.374 79.763,48.099 77.8,48.099C76.818,48.099 75.837,48.59 75.445,49.277C75.346,49.473 75.248,49.571 75.052,49.571C74.855,49.571 74.757,49.473 74.757,49.277L74.069,43.585C73.971,42.898 74.266,42.309 75.149,42.211L79.075,41.818L76.523,36.714L81.528,36.714C81.528,37.695 82.216,38.382 83.001,38.382C83.786,38.382 84.474,37.695 84.474,36.714L88.694,36.714C88.694,37.695 89.283,38.382 90.166,38.382C90.854,38.382 91.541,37.695 91.541,36.714L96.645,36.714L93.7,42.603C100.374,45.253 105.183,51.534 105.183,58.895C105.183,65.373 103.024,69.004 99.981,73.126C99.098,74.205 98.608,75.383 98.608,77.935C98.608,83.627 103.712,88.24 110.385,88.24C113.623,88.24 115.979,87.75 118.432,86.572C117.942,86.67 117.353,86.67 116.764,86.67C110.483,86.67 104.692,81.665 104.692,74.893C104.692,69.397 107.735,65.766 111.758,62.92C112.543,62.331 113.427,61.742 114.212,61.153C111.66,58.994 109.992,56.736 109.894,53.89C108.225,53.301 106.95,51.829 106.95,49.768C106.95,47.02 109.403,44.664 112.446,44.664C114.605,44.664 116.274,45.547 117.353,46.431C115.586,47.707 114.212,49.572 114.212,52.025C114.212,54.773 116.076,56.834 118.432,58.404C120.787,56.834 122.75,54.773 122.75,52.025C122.75,49.571 121.377,47.707 119.609,46.431C120.689,45.548 122.357,44.664 124.517,44.664C127.559,44.664 130.013,47.019 130.013,49.768C130.013,51.829 128.737,53.301 127.068,53.89C126.97,56.932 125.204,59.19 122.456,61.447C127.658,65.471 131.682,69.299 131.682,75.285C131.682,84.512 122.948,93.541 109.894,93.541C107.832,93.541 106.557,93.246 105.379,92.951C106.459,94.521 107.538,96.092 108.029,98.644C109.009,98.938 111.955,99.134 114.015,99.134C117.744,99.134 122.848,97.76 124.124,96.288C124.614,97.268 125.104,98.643 125.104,100.017C125.104,102.372 123.338,103.747 121.277,104.14C122.062,110.224 122.847,117.095 122.847,122.394C122.847,129.658 120.393,132.503 116.86,132.896C117.057,132.7 117.155,132.406 117.155,132.013C117.155,130.344 115.585,129.166 113.818,129.166C110.874,129.166 109.696,130.638 106.653,130.638C104.2,130.638 103.317,129.166 101.157,129.166C99.784,129.166 98.802,130.147 98.802,131.325C98.802,131.914 98.999,132.405 99.392,132.895C96.644,132.797 94.386,130.343 94.386,127.791C94.386,126.908 94.582,126.221 94.975,125.436C94.288,124.748 93.699,123.669 93.699,122.393C93.699,120.823 94.877,119.547 96.546,119.155C96.742,117.094 98.509,115.524 100.668,115.524C103.22,115.524 104.889,117.192 105.772,119.744C105.968,120.333 106.165,120.529 106.753,120.529C107.832,120.628 109.305,120.43 110.188,120.235C110.679,120.136 110.973,119.744 110.973,119.351C110.875,116.504 110.286,112.481 109.698,110.125C108.717,110.223 105.772,110.42 104.104,110.42C99.786,110.42 95.663,108.555 93.504,103.648C87.223,104.041 80.942,103.942 74.856,103.354C74.758,103.648 74.758,103.844 74.758,104.041C74.758,105.219 75.739,106.396 77.113,106.396C78.388,106.396 79.371,105.905 79.861,105.218C80.156,106.003 80.351,106.985 80.351,107.966C80.351,110.42 78.487,111.99 76.131,111.99C75.64,111.99 75.15,111.891 74.953,111.793C74.854,115.916 75.247,120.528 75.247,124.847C75.247,128.282 73.284,132.012 68.868,132.895C69.064,132.699 69.162,132.405 69.162,132.012C69.162,130.343 67.592,129.165 65.825,129.165C62.881,129.165 61.703,130.637 58.66,130.637C56.206,130.637 55.323,129.165 53.164,129.165C51.79,129.165 50.809,130.146 50.809,131.324C50.809,131.913 51.005,132.404 51.398,132.894C49.435,132.796 48.159,131.52 46.883,130.441L43.154,127.202L36.284,96.68L33.438,94.815L32.457,90.3C30.494,88.926 29.513,87.356 29.513,85.295C29.513,84.117 30.004,83.233 30.593,82.547C30.299,81.565 30.2,80.485 30.2,79.504L27.943,69.199L22.152,94.815L19.306,96.68L12.043,127.694L5.369,132.895L22.252,61.644ZM10.868,127.204L18.131,96.092L20.977,94.129L27.356,66.355L26.571,62.92C25.59,62.822 24.51,62.527 23.43,62.135L7.334,130.051L10.868,127.204ZM34.128,77.053C34.324,77.053 34.521,77.053 34.815,77.151C34.913,76.366 35.208,75.777 35.6,75.384L32.165,59.485C32.754,59.092 33.441,58.504 33.735,58.013C33.539,56.541 33.342,54.676 32.655,53.498C32.262,56.148 30.005,57.718 27.453,57.718C24.705,57.718 22.251,55.461 22.251,52.516C22.251,49.67 24.606,47.412 27.453,47.412C28.631,47.412 29.71,47.805 30.692,48.492C31.575,47.805 32.655,47.609 33.636,47.609C33.734,47.315 33.93,47.02 34.127,46.726C32.36,44.665 30.103,43.684 27.159,43.684C22.154,43.684 18.228,47.61 18.228,52.419C18.228,57.424 22.154,61.448 26.963,61.448L27.552,61.448L31.281,78.427C31.674,77.838 32.656,77.053 34.128,77.053ZM31.576,53.399C31.576,53.006 31.282,52.81 30.889,52.81C30.202,52.81 29.711,53.399 29.417,54.282C29.123,53.497 28.926,52.81 28.926,52.123C28.926,51.142 29.22,50.16 29.809,49.375C29.122,48.884 28.435,48.688 27.65,48.688C25.491,48.688 23.724,50.356 23.724,52.516C23.724,54.676 25.491,56.442 27.65,56.442C29.711,56.442 31.576,54.675 31.576,53.399ZM62.884,72.636C63.178,69.201 65.239,65.177 69.558,63.018C67.203,62.92 64.553,62.822 61.314,62.822C56.799,62.822 51.696,63.116 47.279,63.509C45.709,63.607 44.727,62.92 43.942,61.841C42.862,60.271 42.47,57.915 42.568,56.149C42.666,55.069 43.157,54.481 43.942,53.695C44.727,52.909 45.316,51.928 45.316,50.554C45.316,48.787 43.942,47.512 42.47,47.512C41.979,47.512 41.587,47.61 41.39,47.708C41.684,48.199 41.979,48.788 41.979,49.769C41.979,51.241 41.39,52.713 40.311,53.989C40.9,52.419 41.096,51.634 41.096,50.456C41.096,48.101 39.428,46.236 37.268,46.236C36.188,46.236 35.011,46.825 34.52,47.806C36.581,48.493 37.955,50.358 37.955,52.517C37.955,53.793 37.562,54.774 37.17,55.756C37.268,54.971 37.268,54.382 37.268,53.793C37.268,51.143 35.698,48.788 33.342,48.788C30.692,48.788 29.514,50.653 29.613,52.616C29.907,52.322 30.496,51.929 31.478,51.929C32.754,51.929 34.226,52.616 34.619,55.364C35.11,59.093 35.797,61.056 36.974,63.216C37.465,64.197 37.955,65.277 37.955,66.553C37.955,67.927 37.072,69.105 36.09,69.694C37.071,70.97 38.74,71.559 41.194,71.559C42.862,71.559 44.335,71.265 46.494,71.265C51.303,71.265 55.327,72.443 57.879,75.78C59.646,74.599 61.118,73.715 62.884,72.636ZM48.555,96.19C49.438,95.111 50.812,93.148 52.677,91.479C54.444,89.909 56.112,88.731 57.977,87.75C59.351,87.062 60.725,86.572 61.903,86.572C63.866,86.572 64.945,87.75 64.945,88.731C66.712,87.75 68.282,86.867 70.147,86.082C65.436,83.727 63.179,79.408 62.786,74.5C58.369,76.758 53.266,80.781 49.046,84.314C47.574,85.492 46.298,85.492 44.826,85.002C43.746,84.609 42.471,83.628 41.882,82.549C41.686,82.156 41.588,81.665 41.588,81.174L41.686,79.113C41.784,76.954 40.116,75.677 38.447,75.677C37.269,75.677 36.19,76.07 35.699,77.247C37.466,77.935 39.036,79.701 39.232,82.842C37.76,79.309 36.091,78.23 34.521,78.23C31.969,78.23 31.184,80.585 31.282,82.057C31.871,81.763 32.558,81.566 33.343,81.566C35.698,81.566 37.465,83.334 37.956,85.689C36.484,83.627 35.306,82.744 33.343,82.744C31.675,82.744 30.595,84.02 30.595,85.591C30.595,86.965 30.988,88.24 32.558,89.418C32.46,88.045 33.343,86.867 34.717,86.867C36.091,86.867 36.876,87.554 37.759,88.633C39.526,90.891 41.096,92.069 42.961,93.05C44.433,93.835 44.924,95.013 44.924,95.994C44.924,96.583 44.728,97.269 44.335,97.859C44.629,98.054 45.022,98.054 45.513,98.054C46.494,98.055 47.672,97.368 48.555,96.19ZM36.778,66.551C36.778,65.766 36.385,64.883 36.091,64.196C35.404,62.724 34.619,61.154 34.128,59.583L33.539,60.172L35.502,68.809C35.993,68.612 36.778,67.63 36.778,66.551ZM46.396,127.793C46.396,126.91 46.592,126.223 46.985,125.438C46.298,124.75 45.709,123.671 45.709,122.395C45.709,121.905 45.807,121.512 46.003,121.12L39.427,92.069C38.642,91.381 37.66,90.302 36.875,89.419C36.09,88.439 35.501,88.046 34.716,88.046C34.029,88.046 33.44,88.634 33.636,89.714L34.617,94.13L37.463,96.093L44.333,126.714L46.492,128.579C46.396,128.283 46.396,128.088 46.396,127.793ZM48.359,83.334C50.714,81.272 53.659,78.917 56.898,76.463C54.543,73.715 50.715,72.636 46.593,72.636C43.551,72.636 42.275,72.832 40.901,72.832C39.134,72.832 36.975,72.243 35.896,70.967L36.779,74.795C37.172,74.599 37.957,74.402 38.644,74.402C40.705,74.402 42.864,75.875 42.864,78.623C42.864,79.408 42.668,80.389 42.668,80.88C42.668,81.371 42.766,81.764 42.962,82.058C43.453,82.745 44.532,83.628 45.416,83.922C46.396,84.217 47.279,84.217 48.359,83.334ZM62.492,120.236C62.983,120.137 63.277,119.745 63.277,119.254C63.179,113.66 62.001,106.398 62.001,100.901C62.001,96.779 63.081,93.736 67.792,92.166C72.11,90.694 77.508,90.008 80.354,90.008C80.944,90.008 81.63,90.008 83.004,90.203C78.783,88.535 75.349,87.652 71.914,86.867C69.46,87.75 66.418,89.418 63.474,91.087C63.67,90.596 63.768,90.203 63.768,89.713C63.768,88.83 63.179,87.946 61.903,87.946C60.725,87.946 59.548,88.437 58.566,88.927C56.898,89.81 54.935,91.086 53.561,92.363C51.696,94.031 50.322,95.798 49.537,96.779C48.359,98.252 46.789,99.134 45.12,99.134C44.237,99.134 43.452,98.938 42.765,98.446C43.256,97.956 43.746,97.367 43.746,96.385C43.746,95.6 43.353,94.815 42.765,94.324C42.176,93.833 41.489,93.539 40.998,93.146L46.985,119.841C47.378,119.546 47.868,119.35 48.555,119.153C48.751,117.092 50.518,115.522 52.677,115.522C55.229,115.522 56.897,117.19 57.781,119.742C57.977,120.331 58.174,120.527 58.762,120.527C59.842,120.629 61.608,120.432 62.492,120.236ZM49.831,130.443C49.831,128.873 51.303,127.695 53.168,127.695C55.622,127.695 56.996,129.265 59.057,129.265C61.511,129.265 62.198,127.792 65.633,127.792C68.185,127.792 70.05,129.362 70.148,131.129C72.11,130.344 73.779,127.89 73.779,124.848C73.779,120.824 73.583,115.327 73.583,110.323C74.271,110.519 74.957,110.716 76.135,110.716C77.999,110.716 79.079,109.538 79.079,108.164C79.079,107.771 79.079,107.476 78.981,107.183C78.293,107.477 77.606,107.576 77.018,107.576C75.153,107.576 73.485,106.104 73.386,103.454C73.386,102.964 73.386,102.571 73.485,102.179C78.589,102.572 84.182,102.866 89.286,102.572C87.813,101.982 87.225,100.707 87.225,99.627C87.225,98.842 87.715,98.155 88.403,97.861C87.127,94.916 84.771,92.659 82.71,91.285C78.981,91.089 72.896,91.973 68.381,93.346C64.259,94.622 63.474,97.664 63.474,100.904C63.474,105.419 64.357,112.387 64.357,119.355C64.357,120.336 63.964,120.925 63.179,121.219C62.099,121.71 59.94,122.004 58.468,121.809C57.585,121.71 57.094,121.416 56.701,120.336C55.916,118.078 54.444,116.705 52.677,116.705C50.812,116.705 49.831,118.078 49.536,119.06C52.578,119.06 54.541,120.63 55.621,122.691C53.854,121.121 52.088,120.139 49.929,120.139C47.966,120.139 46.788,121.415 46.788,122.788C46.788,123.476 46.886,124.358 47.377,124.85C48.064,123.869 49.732,123.28 51.008,123.28C53.069,123.28 54.345,124.359 54.836,125.342C53.756,124.557 52.677,124.262 51.401,124.262C49.438,124.262 47.672,125.735 47.672,127.698C47.672,129.661 48.653,131.231 50.322,132.114C50.027,131.621 49.831,131.031 49.831,130.443ZM74.858,51.044C72.011,51.633 70.638,51.829 69.754,51.829C66.319,51.829 64.258,50.259 64.062,48.197C63.669,50.651 65.436,52.81 68.577,52.81C70.54,52.811 72.404,52.222 74.858,51.044ZM68.283,76.659C68.283,71.163 72.111,67.532 77.705,65.471C80.453,64.49 83.986,63.607 88.305,61.545C92.623,59.484 94.88,55.951 94.88,50.945C94.88,47.019 93.506,43.879 90.66,42.799C92.426,43.977 92.721,45.154 92.721,46.332C92.721,47.706 91.641,48.687 90.562,48.687C89.581,48.687 89.09,47.999 88.698,47.117C89.188,47.607 89.581,47.804 90.17,47.804C91.151,47.804 91.642,47.117 91.642,46.234C91.642,43.585 89.385,42.505 86.245,42.505C84.589,42.505 82.29,42.648 79.888,42.869C80.106,43.051 80.329,43.202 80.553,43.29C81.142,43.585 81.828,43.683 82.81,43.781C84.184,43.977 85.46,44.075 86.539,44.468C85.361,44.468 84.282,44.664 83.301,44.959C83.006,45.94 82.613,46.431 81.927,46.431C81.239,46.431 80.749,46.038 80.357,45.352C80.039,44.715 79.719,43.82 79.434,42.912C77.995,43.05 76.531,43.213 75.155,43.39L75.548,47.905C75.843,47.512 76.823,47.022 77.903,47.022C80.356,47.022 82.221,48.887 82.221,51.144C82.221,53.598 80.651,54.677 78.688,54.677C77.51,54.677 76.43,54.186 75.842,53.794L76.037,57.425C78.884,56.934 81.435,56.542 84.674,56.149C88.6,55.56 92.232,54.677 92.33,48.592C92.525,48.985 92.82,49.868 92.82,50.653C92.82,54.677 90.367,57.425 86.441,58.701C82.123,60.075 76.822,61.351 73.191,62.627C68.087,64.394 64.162,68.319 64.162,73.619C64.162,79.017 66.517,83.531 72.406,85.789C69.264,82.94 68.283,80.095 68.283,76.659ZM74.073,79.702C74.073,75.187 77.214,72.047 81.728,70.084C85.359,68.514 87.813,67.336 90.855,65.766C95.665,63.214 97.726,58.307 97.726,53.4C97.726,48.59 95.958,44.763 93.21,43.487C94.78,44.861 95.958,47.511 95.958,50.946C95.958,56.246 93.603,60.467 88.794,62.723C85.457,64.293 82.415,65.177 78.489,66.551C73.188,68.318 69.656,71.851 69.656,76.758C69.656,80.684 71.815,85.198 75.349,86.376L77.115,86.965C74.957,84.903 74.073,82.45 74.073,79.702ZM79.275,83.137C79.275,79.211 81.924,76.562 85.261,74.795C88.205,73.225 90.462,72.145 92.818,70.574C98.707,66.747 100.768,62.134 100.768,56.245C100.768,52.025 99.296,47.314 95.763,44.664C97.529,46.726 98.805,49.474 98.805,53.497C98.805,58.797 97.038,63.606 91.64,66.648C88.794,68.317 85.654,69.789 82.218,71.261C78.882,72.635 75.447,75.481 75.447,79.898C75.447,83.627 77.508,86.473 80.256,87.847L81.826,88.632C80.453,87.357 79.275,85.591 79.275,83.137ZM94.88,37.696L92.426,37.696C92.231,38.677 91.151,39.463 90.169,39.463C88.991,39.463 88.107,38.775 87.912,37.696L85.262,37.696C85.066,38.677 84.084,39.463 83.004,39.463C81.826,39.463 81.041,38.775 80.846,37.696L78.392,37.696L80.061,41.719C81.925,41.621 84.281,41.523 85.95,41.523C89.188,41.523 90.955,41.916 92.721,42.308L94.88,37.696ZM84.477,85.983C84.477,83.921 85.066,82.646 86.145,81.468C88.992,78.131 93.211,77.15 96.843,74.205C101.554,70.279 103.909,64.979 103.909,58.894C103.909,53.79 101.652,49.57 98.904,46.822C100.572,49.08 101.847,52.514 101.847,56.244C101.847,62.624 100.081,67.236 93.701,71.555C91.639,72.929 88.401,74.499 85.849,75.873C83.2,77.346 80.647,79.799 80.647,83.136C80.647,86.669 82.905,89.025 86.34,90.497C85.065,89.32 84.477,87.651 84.477,85.983ZM92.916,102.275C92.033,97.171 90.07,93.638 86.047,91.283C85.262,90.793 84.574,91.381 85.163,91.872C86.439,93.05 89.089,95.601 89.973,98.447C89.089,98.447 88.697,99.037 88.697,99.723C88.697,101.392 90.464,102.471 91.641,102.471C92.131,102.472 92.523,102.373 92.916,102.275ZM97.824,130.442C97.824,128.872 99.297,127.694 101.161,127.694C103.615,127.694 104.988,129.264 107.05,129.264C109.504,129.264 110.191,127.792 113.625,127.792C116.178,127.792 118.042,129.362 118.141,131.129C120.104,130.344 121.477,127.988 121.477,123.081C121.477,116.8 120.594,109.046 119.613,103.157C122.655,102.961 123.833,101.783 123.833,100.016C123.833,99.329 123.638,98.741 123.44,98.348C120.594,99.722 117.551,100.507 114.018,100.507C111.565,100.507 108.327,100.212 106.756,99.623C105.971,95.697 103.811,92.36 102.143,90.594C103.91,91.379 107.05,92.164 109.798,92.164C121.477,92.164 130.212,84.018 130.212,75.283C130.212,69.983 126.875,66.156 121.477,62.23L119.514,63.604C125.403,67.627 127.366,71.357 127.366,74.89C127.366,79.7 123.343,83.527 118.239,83.527C113.135,83.527 109.112,79.7 109.112,74.89C109.112,70.278 112.154,67.137 117.551,63.505C118.827,62.72 120.299,61.641 121.674,60.659C123.832,58.99 126.483,56.046 125.992,53.2C127.562,52.807 128.641,51.924 128.641,49.764C128.641,47.409 126.678,45.741 124.519,45.741C122.949,45.741 121.967,46.134 121.281,46.428C123.047,47.998 123.93,50.06 123.93,51.826C123.93,54.672 122.752,56.635 119.808,58.696C117.747,60.168 115.392,61.64 113.134,63.308C108.619,66.645 106.165,70.08 106.165,74.791C106.165,81.661 111.76,85.587 117.06,85.587C120.103,85.587 122.752,84.998 125.206,83.232C122.359,86.47 116.569,89.513 110.386,89.513C102.632,89.513 97.235,84.213 97.235,77.932C97.235,76.558 97.431,75.577 97.628,75.085C93.801,78.521 90.07,79.109 87.421,82.054C86.243,83.329 85.851,84.606 85.851,86.077C85.851,87.942 86.735,89.61 88.01,90.788C89.384,91.966 90.856,93.438 91.641,94.714C92.917,96.677 93.604,99.032 94.194,101.388C95.567,106.884 99.591,109.142 104.695,109.142C106.364,109.142 109.505,108.847 111.075,108.357C110.878,109.044 110.878,109.632 111.075,110.418C111.762,113.362 112.253,116.405 112.35,119.35C112.35,120.331 111.957,120.822 111.075,121.214C109.995,121.705 107.934,121.999 106.462,121.803C105.579,121.705 105.088,121.41 104.695,120.331C103.91,118.073 102.438,116.699 100.671,116.699C98.807,116.699 97.825,118.073 97.53,119.054C100.573,119.054 102.536,120.624 103.616,122.686C101.848,121.116 100.083,120.134 97.923,120.134C95.96,120.134 94.782,121.409 94.782,122.783C94.782,123.471 94.881,124.353 95.372,124.845C96.059,123.864 97.727,123.275 99.003,123.275C101.064,123.275 102.34,124.354 102.831,125.336C101.751,124.551 100.671,124.257 99.395,124.257C97.432,124.257 95.666,125.729 95.666,127.692C95.666,129.655 96.647,131.225 98.315,132.109C98.021,131.62 97.824,131.031 97.824,130.442ZM117.453,58.993C114.215,56.638 113.037,54.675 113.037,51.829C113.037,50.062 113.92,48.001 115.686,46.431C114.999,46.137 114.017,45.744 112.447,45.744C110.289,45.744 108.326,47.412 108.326,49.767C108.326,51.926 109.405,52.81 110.975,53.203C110.484,55.951 112.938,58.699 115.392,60.563L117.453,58.993ZM125.992,74.893C125.992,70.771 123.637,67.827 118.434,64.293C113.134,67.826 110.484,70.574 110.484,74.893C110.484,79.015 113.92,82.352 118.238,82.352C122.556,82.352 125.992,79.015 125.992,74.893Z" style="fill:rgb(0,101,189);fill-rule:nonzero;"/>
        </g>
    </g>
</svg>
